<svg width="16" height="17" viewBox="0 0 16 17" fill="none" xmlns="http://www.w3.org/2000/svg">
<g opacity="0.5" clip-path="url(#clip0_728_3677)">
<path d="M8 16.9941C3.58875 16.9941 0 13.4054 0 8.99414C0 4.58289 3.58875 0.994141 8 0.994141C12.4113 0.994141 16 4.58289 16 8.99414C16 13.4054 12.4113 16.9941 8 16.9941Z" fill="black"/>
<path d="M10.8573 12.4228C10.711 12.4228 10.5648 12.367 10.4532 12.2553L4.73898 6.54106C4.51572 6.31779 4.51572 5.95622 4.73898 5.73308C4.96213 5.50993 5.32382 5.50981 5.54697 5.73308L11.2612 11.4473C11.4845 11.6706 11.4845 12.0322 11.2612 12.2553C11.1496 12.367 11.0035 12.4228 10.8573 12.4228Z" fill="white"/>
<path d="M5.14291 12.4227C4.99667 12.4227 4.85056 12.3669 4.73898 12.2552C4.51572 12.0321 4.51572 11.6704 4.73898 11.4472L10.4532 5.733C10.6765 5.50974 11.0381 5.50974 11.2612 5.733C11.4843 5.95615 11.4845 6.31784 11.2612 6.54099L5.54697 12.2552C5.43539 12.3669 5.28915 12.4227 5.14291 12.4227Z" fill="white"/>
</g>
<defs>
<clipPath id="clip0_728_3677">
<rect width="16" height="16" fill="white" transform="translate(0 0.994141)"/>
</clipPath>
</defs>
</svg>
